<svg xmlns="http://www.w3.org/2000/svg" xmlns:xlink="http://www.w3.org/1999/xlink" width="36" height="36" viewBox="0 0 36 36"><defs><style>.a{fill:none;}.b{fill:#ffd56c;}.c{fill:#514334;}.d{fill:#fff;}.e{fill:url(#a);}</style><linearGradient id="a" x1="0.512" y1="1.102" x2="0.492" y2="0.125" gradientUnits="objectBoundingBox"><stop offset="0" stop-color="#fff"/><stop offset="0.15" stop-color="#fffefa"/><stop offset="0.32" stop-color="#fffaed"/><stop offset="0.49" stop-color="#fff4d7"/><stop offset="0.67" stop-color="#ffebb8"/><stop offset="0.86" stop-color="#ffdf90"/><stop offset="1" stop-color="#ffd56c"/></linearGradient></defs><rect class="a" width="36" height="36"/><g transform="translate(1)"><rect class="b" width="7" height="13.5" rx="0.5" transform="translate(0 22.5)"/><path class="c" d="M143,2492.5V2504h-5v-11.5h5m.5-1h-6a.5.5,0,0,0-.5.5v12.5a.5.5,0,0,0,.5.5h6a.5.5,0,0,0,.5-.5V2492a.5.5,0,0,0-.5-.5Z" transform="translate(-137 -2469)"/><rect class="d" width="7" height="25.5" rx="0.5" transform="translate(9 10.5)"/><path class="c" d="M152,2480.5V2504h-5v-23.5h5m.5-1h-6a.5.5,0,0,0-.5.5v24.5a.5.5,0,0,0,.5.5h6a.5.5,0,0,0,.5-.5V2480a.5.5,0,0,0-.5-.5Z" transform="translate(-137 -2469)"/><rect class="e" width="7" height="36" rx="0.5" transform="translate(18)"/><path class="c" d="M161,2470v34h-5v-34h5m.5-1h-6a.5.5,0,0,0-.5.5v35a.5.5,0,0,0,.5.5h6a.5.5,0,0,0,.5-.5v-35a.5.5,0,0,0-.5-.5Z" transform="translate(-137 -2469)"/><rect class="d" width="7" height="19.5" rx="0.5" transform="translate(27 16.5)"/><path class="c" d="M170,2486.5V2504h-5v-17.5h5m.5-1h-6a.5.5,0,0,0-.5.5v18.5a.5.5,0,0,0,.5.5h6a.5.5,0,0,0,.5-.5V2486a.5.5,0,0,0-.5-.5Z" transform="translate(-137 -2469)"/></g></svg>