<svg xmlns="http://www.w3.org/2000/svg" xmlns:xlink="http://www.w3.org/1999/xlink" width="36" height="36" viewBox="0 0 36 36"><defs><style>.a{fill:none;}.b{fill:#fff;}.c{fill:#514334;}.d{fill:url(#a);}.e{fill:#ffd56c;}</style><linearGradient id="a" y1="0.5" x2="1" y2="0.5" gradientUnits="objectBoundingBox"><stop offset="0" stop-color="#fff"/><stop offset="0.15" stop-color="#fffefa"/><stop offset="0.32" stop-color="#fffaed"/><stop offset="0.49" stop-color="#fff4d7"/><stop offset="0.67" stop-color="#ffebb8"/><stop offset="0.86" stop-color="#ffdf90"/><stop offset="1" stop-color="#ffd56c"/></linearGradient></defs><rect class="a" width="36" height="36"/><g transform="translate(1.976 1.979)"><rect class="b" width="32" height="26" rx="3" transform="matrix(1, -0.002, 0.002, 1, 0, 0.059)"/><path class="c" d="M365.982,2463.984a2,2,0,0,1,2,2l.036,20a2.007,2.007,0,0,1-2,2l-26,.048a2,2,0,0,1-2-2l-.036-20a2,2,0,0,1,2-2l26-.048h.006m0-1h-.006l-26,.048a3.008,3.008,0,0,0-2.994,3.005l.036,20a3.01,3.01,0,0,0,3,2.995h.006l26-.048a3.008,3.008,0,0,0,2.994-3l-.036-20a3.009,3.009,0,0,0-3-3Z" transform="translate(-336.976 -2462.979)"/><path class="d" d="M366.024,2488.984l-26,.048a3.01,3.01,0,0,1-3.006-2.995l-.005-3,32-.058.005,3A3.008,3.008,0,0,1,366.024,2488.984Z" transform="translate(-336.976 -2462.979)"/><path class="c" d="M368.015,2483.98l0,2a2.007,2.007,0,0,1-2,2l-26,.048a2,2,0,0,1-2-2l0-2,30-.056m1-1-32,.058.005,3a3.01,3.01,0,0,0,3,2.995h.006l26-.048a3.008,3.008,0,0,0,2.994-3l-.005-3Z" transform="translate(-336.976 -2462.979)"/><path class="e" d="M349.749,2489.011c.006,3.473-1.34,5.5-2.99,5.505l12-.022c-1.65,0-3-2.021-3.011-5.494" transform="translate(-336.976 -2462.979)"/><path class="c" d="M346.76,2495.016h0l0-1a2.043,2.043,0,0,0,1.683-1.2,7.728,7.728,0,0,0,.807-3.8.5.5,0,0,1,.5-.5h0a.5.5,0,0,1,.5.5,8.7,8.7,0,0,1-.94,4.3,4.293,4.293,0,0,1-.5.7L356.7,2494a7.448,7.448,0,0,1-1.45-5,.5.5,0,0,1,.5-.5h0a.5.5,0,0,1,.5.5c.006,2.943,1.036,5,2.507,5h0l0,1Z" transform="translate(-336.976 -2462.979)"/><path class="c" d="M355.549,2479.5h-.036a.5.5,0,0,1-.411-.274l-5.071-10.1-2.543,5.111a.5.5,0,0,1-.447.277l-5.5.01h0a.5.5,0,0,1,0-1l5.191-.009,2.851-5.73a.5.5,0,0,1,.447-.277h0a.5.5,0,0,1,.447.275l5.143,10.241,3.011-4.318a.5.5,0,0,1,.409-.214l5.5-.01h0a.5.5,0,0,1,0,1l-5.24.009-3.342,4.793A.5.5,0,0,1,355.549,2479.5Z" transform="translate(-336.976 -2462.979)"/></g></svg>