<svg xmlns="http://www.w3.org/2000/svg" xmlns:xlink="http://www.w3.org/1999/xlink" width="36" height="36" viewBox="0 0 36 36"><defs><style>.a{fill:none;}.b{fill:#fff;}.c{fill:#514334;}.d{fill:#ffd56c;}.e{fill:url(#a);}</style><linearGradient id="a" x1="1.005" y1="0.486" x2="0.031" y2="0.513" gradientUnits="objectBoundingBox"><stop offset="0" stop-color="#fff"/><stop offset="0.15" stop-color="#fffefa"/><stop offset="0.32" stop-color="#fffaed"/><stop offset="0.49" stop-color="#fff4d7"/><stop offset="0.67" stop-color="#ffebb8"/><stop offset="0.86" stop-color="#ffdf90"/><stop offset="1" stop-color="#ffd56c"/></linearGradient></defs><rect class="a" width="36" height="36"/><rect class="b" width="30" height="21" rx="0.5" transform="translate(0 1)"/><path class="c" d="M215,2473v19H187v-19h28m.5-1h-29a.5.5,0,0,0-.5.5v20a.5.5,0,0,0,.5.5h29a.5.5,0,0,0,.5-.5v-20a.5.5,0,0,0-.5-.5Z" transform="translate(-186 -2471)"/><path class="d" d="M215.9,2472.574a.768.768,0,0,0-.729-.512H186.833a.768.768,0,0,0-.729.512.74.74,0,0,0,.266.837l14.166,10.437a.784.784,0,0,0,.928,0l14.166-10.437A.74.74,0,0,0,215.9,2472.574Z" transform="translate(-186 -2471)"/><path class="c" d="M214.417,2473.062,201,2482.948l-13.417-9.886h26.834m.75-1H186.833a.768.768,0,0,0-.729.512.74.74,0,0,0,.266.837l14.166,10.437a.784.784,0,0,0,.928,0l14.166-10.437a.74.74,0,0,0,.266-.837.768.768,0,0,0-.729-.512Z" transform="translate(-186 -2471)"/><path class="e" d="M214.841,2506h4.091a3.1,3.1,0,0,0,3.068-3.147v-13.706a3.1,3.1,0,0,0-3.068-3.147H202.568a3.1,3.1,0,0,0-3.068,3.147v13.706a3.1,3.1,0,0,0,3.068,3.147h12.273Z" transform="translate(-186 -2471)"/><path class="c" d="M218.932,2487a2.111,2.111,0,0,1,2.068,2.147v13.706a2.111,2.111,0,0,1-2.068,2.147H202.568a2.111,2.111,0,0,1-2.068-2.147v-13.706a2.111,2.111,0,0,1,2.068-2.147h16.364m0-1H202.568a3.1,3.1,0,0,0-3.068,3.147v13.706a3.1,3.1,0,0,0,3.068,3.147h16.364a3.1,3.1,0,0,0,3.068-3.147v-13.706a3.1,3.1,0,0,0-3.068-3.147Z" transform="translate(-186 -2471)"/><rect class="c" width="12" height="1.5" transform="translate(18 20)"/><rect class="c" width="7.5" height="1.5" transform="translate(18 24)"/><rect class="c" width="10.5" height="1.5" transform="translate(18 28)"/></svg>