<svg xmlns="http://www.w3.org/2000/svg" width="36" height="36" viewBox="0 0 36 36"><defs><style>.a{fill:none;}.b{fill:#fff;}.c{fill:#514334;}.d{fill:#ffd56c;}</style></defs><g transform="translate(0 0)"><rect class="a" width="36" height="36"/><path class="b" d="M239.664,2497.776a.32.32,0,0,1-.32-.32v-21.77a.331.331,0,0,1,.32-.33h34.36a.331.331,0,0,1,.32.33v21.77a.32.32,0,0,1-.32.32Z" transform="translate(-238.844 -2465.276)"/><path class="c" d="M273.844,2475.866v21.41h-34v-21.41h34m.18-1h-34.36a.82.82,0,0,0-.82.82v21.77a.82.82,0,0,0,.82.82h34.36a.82.82,0,0,0,.82-.82v-21.77A.82.82,0,0,0,274.024,2474.866Z" transform="translate(-238.844 -2465.276)"/><path class="d" d="M239.344,2475.456v-6.1a.581.581,0,0,1,.57-.58h33.86a.581.581,0,0,1,.57.58v6.1Z" transform="translate(-238.844 -2465.276)"/><path class="c" d="M273.774,2469.276a.081.081,0,0,1,.07.07v5.61h-34v-5.61a.081.081,0,0,1,.07-.07h33.86m0-1h-33.86a1.07,1.07,0,0,0-1.07,1.07h0v6.61h36v-6.61A1.07,1.07,0,0,0,273.774,2468.276Z" transform="translate(-238.844 -2465.276)"/><circle class="c" cx="0.5" cy="0.5" r="0.5" transform="translate(7 6.02)"/><circle class="c" cx="0.5" cy="0.5" r="0.5" transform="translate(5 6.02)"/><circle class="c" cx="0.5" cy="0.5" r="0.5" transform="translate(3 6.02)"/><g transform="translate(9.63 14.79)"><path class="c" d="M263.846,2487.287" transform="translate(-248.474 -2480.066)"/><path class="c" d="M262.844,2487.066a.5.5,0,0,1-.5-.5,5.5,5.5,0,0,0-9.393-3.89.5.5,0,1,1-.705-.709,6.5,6.5,0,0,1,11.1,4.6A.5.5,0,0,1,262.844,2487.066Z" transform="translate(-248.474 -2480.066)"/><path class="c" d="M256.844,2493.066a6.508,6.508,0,0,1-6.5-6.5.5.5,0,0,1,1,0,5.5,5.5,0,0,0,9.392,3.89.5.5,0,1,1,.706.709A6.489,6.489,0,0,1,256.844,2493.066Z" transform="translate(-248.474 -2480.066)"/><path class="c" d="M262.843,2487.066a.5.5,0,0,1-.293-.095l-2.574-1.872a.5.5,0,1,1,.588-.808l2.574,1.871a.5.5,0,0,1-.3.9Z" transform="translate(-248.474 -2480.066)"/><path class="c" d="M262.843,2487.066a.5.5,0,0,1-.4-.794l1.87-2.575a.5.5,0,0,1,.81.588l-1.87,2.575A.5.5,0,0,1,262.843,2487.066Z" transform="translate(-248.474 -2480.066)"/><path class="c" d="M249.842,2485.844" transform="translate(-248.474 -2480.066)"/><path class="c" d="M253.418,2488.936a.5.5,0,0,1-.294-.095l-2.574-1.87a.5.5,0,0,1,.588-.809l2.574,1.87a.5.5,0,0,1-.294.9Z" transform="translate(-248.474 -2480.066)"/><path class="c" d="M248.973,2489.64a.5.5,0,0,1-.4-.794l1.871-2.574a.5.5,0,0,1,.808.588l-1.87,2.574A.5.5,0,0,1,248.973,2489.64Z" transform="translate(-248.474 -2480.066)"/></g></g></svg>