<svg xmlns="http://www.w3.org/2000/svg" xmlns:xlink="http://www.w3.org/1999/xlink" width="36" height="36" viewBox="0 0 36 36"><defs><style>.a{fill:none;}.b{fill:#fff;}.c{fill:url(#a);}.d{fill:#514334;}.e{fill:#ffd56c;}.f{fill:#fff3d5;}</style><linearGradient id="a" x1="0.5" y1="-0.107" x2="0.5" y2="1.419" gradientUnits="objectBoundingBox"><stop offset="0" stop-color="#fff"/><stop offset="0.15" stop-color="#fffefa"/><stop offset="0.32" stop-color="#fffaed"/><stop offset="0.49" stop-color="#fff4d7"/><stop offset="0.67" stop-color="#ffebb8"/><stop offset="0.86" stop-color="#ffdf90"/><stop offset="1" stop-color="#ffd56c"/></linearGradient></defs><rect class="a" width="36" height="36"/><rect class="b" width="31" height="15" rx="1"/><rect class="c" width="31" height="15" rx="1" transform="translate(0 17)"/><path class="d" d="M114,2470v13H85v-13h29m0-1H85a1,1,0,0,0-1,1v13a1,1,0,0,0,1,1h29a1,1,0,0,0,1-1v-13a1,1,0,0,0-1-1Z" transform="translate(-84 -2469)"/><path class="d" d="M114,2487v13H85v-13h29m0-1H85a1,1,0,0,0-1,1v13a1,1,0,0,0,1,1h29a1,1,0,0,0,1-1v-13a1,1,0,0,0-1-1Z" transform="translate(-84 -2469)"/><circle class="d" cx="1.5" cy="1.5" r="1.5" transform="translate(5 6)"/><circle class="d" cx="1.5" cy="1.5" r="1.5" transform="translate(5 22.5)"/><circle class="d" cx="1.5" cy="1.5" r="1.5" transform="translate(10 6)"/><circle class="d" cx="1.5" cy="1.5" r="1.5" transform="translate(10 22.5)"/><path class="e" d="M116.517,2490.155a2.251,2.251,0,0,0,2.228,3.863,8.287,8.287,0,0,1,0,4.08,2.25,2.25,0,0,0-2.228,3.862,8.171,8.171,0,0,1-3.539,2.04,2.249,2.249,0,0,0-4.456,0,8.175,8.175,0,0,1-3.54-2.04,2.25,2.25,0,0,0-2.227-3.862,8.287,8.287,0,0,1,0-4.08,2.251,2.251,0,0,0,2.227-3.863,8.175,8.175,0,0,1,3.54-2.04,2.249,2.249,0,0,0,4.456,0A8.171,8.171,0,0,1,116.517,2490.155Z" transform="translate(-84 -2469)"/><path class="d" d="M112.978,2488.115a8.175,8.175,0,0,1,3.54,2.04,2.25,2.25,0,0,0,2.227,3.863,8.283,8.283,0,0,1,0,4.079,2.25,2.25,0,0,0-2.227,3.863,8.175,8.175,0,0,1-3.54,2.04,2.249,2.249,0,0,0-4.456,0,8.175,8.175,0,0,1-3.54-2.04,2.25,2.25,0,0,0-2.227-3.863,8.283,8.283,0,0,1,0-4.079,2.251,2.251,0,0,0,2.227-3.863,8.175,8.175,0,0,1,3.54-2.04,2.249,2.249,0,0,0,4.456,0m0-1a1,1,0,0,0-.991.864,1.249,1.249,0,0,1-2.474,0,1,1,0,0,0-1.257-.828,9.211,9.211,0,0,0-3.972,2.289,1,1,0,0,0,.085,1.5,1.251,1.251,0,0,1-.769,2.24,1.226,1.226,0,0,1-.467-.092,1,1,0,0,0-.829.033,1,1,0,0,0-.518.647,9.275,9.275,0,0,0,0,4.571,1,1,0,0,0,.969.754.989.989,0,0,0,.378-.074,1.226,1.226,0,0,1,.467-.092,1.251,1.251,0,0,1,.769,2.24,1,1,0,0,0-.085,1.5,9.211,9.211,0,0,0,3.972,2.289,1.012,1.012,0,0,0,.266.036,1,1,0,0,0,.991-.864,1.249,1.249,0,0,1,2.474,0,1,1,0,0,0,1.257.828,9.211,9.211,0,0,0,3.972-2.289,1,1,0,0,0-.085-1.5,1.251,1.251,0,0,1,.769-2.24,1.226,1.226,0,0,1,.467.092,1,1,0,0,0,.829-.033,1,1,0,0,0,.518-.647,9.275,9.275,0,0,0,0-4.571,1,1,0,0,0-.969-.754.989.989,0,0,0-.378.074,1.226,1.226,0,0,1-.467.092,1.251,1.251,0,0,1-.769-2.24,1,1,0,0,0,.085-1.5,9.211,9.211,0,0,0-3.972-2.289,1.012,1.012,0,0,0-.266-.036Z" transform="translate(-84 -2469)"/><circle class="f" cx="2.25" cy="2.25" r="2.25" transform="translate(24.5 25.192)"/><path class="d" d="M110.75,2499.192a2.75,2.75,0,1,1,2.75-2.75A2.752,2.752,0,0,1,110.75,2499.192Zm0-4.5a1.75,1.75,0,1,0,1.75,1.75A1.753,1.753,0,0,0,110.75,2494.692Z" transform="translate(-84 -2469)"/></svg>