<svg xmlns="http://www.w3.org/2000/svg" xmlns:xlink="http://www.w3.org/1999/xlink" width="36" height="36" viewBox="0 0 36 36"><defs><style>.a{fill:none;}.b{fill:#514334;}.c{fill:url(#a);}</style><linearGradient id="a" x1="0.5" y1="0.012" x2="0.5" y2="1.023" gradientUnits="objectBoundingBox"><stop offset="0" stop-color="#fff"/><stop offset="0.15" stop-color="#fffefa"/><stop offset="0.32" stop-color="#fffaed"/><stop offset="0.49" stop-color="#fff4d7"/><stop offset="0.67" stop-color="#ffebb8"/><stop offset="0.86" stop-color="#ffdf90"/><stop offset="1" stop-color="#ffd56c"/></linearGradient></defs><rect class="a" width="36" height="36"/><g transform="translate(2 2)"><path class="b" d="M318.5,2467h-31a.5.5,0,0,1,0-1h31a.5.5,0,0,1,0,1Z" transform="translate(-287 -2463)"/><path class="b" d="M303,2467a.5.5,0,0,1-.5-.5v-3a.5.5,0,0,1,1,0v3A.5.5,0,0,1,303,2467Z" transform="translate(-287 -2463)"/><path class="b" d="M292.5,2495a.5.5,0,0,1-.354-.854l11.354-11.353V2494.5a.5.5,0,0,1-1,0v-9.293l-9.646,9.647A.5.5,0,0,1,292.5,2495Z" transform="translate(-287 -2463)"/><path class="b" d="M313.5,2495a.5.5,0,0,1-.354-.146l-9.75-9.75a.5.5,0,0,1,.708-.708l9.75,9.75a.5.5,0,0,1-.354.854Z" transform="translate(-287 -2463)"/><rect class="c" width="30" height="22" rx="1" transform="translate(1 3)"/><path class="b" d="M317,2467v20H289v-20h28m0-1H289a1,1,0,0,0-1,1v20a1,1,0,0,0,1,1h28a1,1,0,0,0,1-1v-20a1,1,0,0,0-1-1Z" transform="translate(-287 -2463)"/><rect class="b" width="2" height="5" transform="translate(9 15)"/><rect class="b" width="2" height="9" transform="translate(13 11)"/><rect class="b" width="2" height="13" transform="translate(17 7)"/><rect class="b" width="2" height="9" transform="translate(21 11)"/></g></svg>